<?xml version="1.0" standalone="no"?>
<!DOCTYPE svg PUBLIC "-//W3C//DTD SVG 20010904//EN"
 "http://www.w3.org/TR/2001/REC-SVG-20010904/DTD/svg10.dtd">
<svg version="1.0" xmlns="http://www.w3.org/2000/svg"
 width="225.000000pt" height="225.000000pt" viewBox="0 0 225.000000 225.000000"
 preserveAspectRatio="xMidYMid meet">
<metadata>
Created by potrace 1.14, written by Peter Selinger 2001-2017
</metadata>
<g transform="translate(0.000000,225.000000) scale(0.100000,-0.100000)"
fill="#000000" stroke="none">
<path d="M1015 2104 c-316 -47 -562 -204 -727 -464 -174 -272 -194 -658 -51
-944 55 -112 102 -176 193 -266 126 -127 254 -204 426 -256 83 -26 101 -28
269 -28 168 0 186 2 269 28 172 52 300 129 426 256 162 161 252 340 281 557
67 500 -257 974 -746 1094 -78 19 -276 32 -340 23z m286 -299 c147 -38 289
-133 380 -253 l51 -67 -339 -6 c-197 -3 -351 -10 -369 -16 -118 -41 -209 -136
-238 -248 l-11 -45 -108 186 -107 186 35 44 c70 85 225 184 335 214 120 33
256 34 371 5z m-616 -620 c86 -148 172 -286 191 -306 79 -81 201 -120 308 -99
76 15 126 40 182 92 l44 41 0 -216 0 -216 -82 -27 c-70 -22 -101 -27 -198 -27
-128 0 -202 15 -306 64 -184 87 -326 259 -380 459 -23 88 -24 263 0 348 21 79
66 176 77 165 4 -4 78 -129 164 -278z m1098 183 c32 -86 40 -135 41 -238 0
-127 -13 -188 -69 -305 -54 -112 -117 -192 -203 -255 l-67 -49 -6 337 c-3 197
-10 350 -16 368 -19 54 -44 95 -85 140 l-41 44 215 0 215 0 16 -42z"/>
</g>
</svg>
